<svg width="27" height="28" viewBox="0 0 27 28" fill="none" xmlns="http://www.w3.org/2000/svg">
<path d="M2.29989 11.498C2.35454 10.879 2.66367 10.3014 3.16571 9.88032C3.66775 9.4592 4.32587 9.22543 5.009 9.22556H21.3914C22.0745 9.22543 22.7326 9.4592 23.2347 9.88032C23.7367 10.3014 24.0459 10.879 24.1005 11.498L25.1915 23.8482C25.2215 24.1881 25.1738 24.5299 25.0513 24.8522C24.9289 25.1745 24.7343 25.4703 24.48 25.7208C24.2256 25.9714 23.9169 26.1714 23.5734 26.3083C23.2298 26.4451 22.8588 26.5158 22.4837 26.5159H3.91666C3.54157 26.5158 3.17057 26.4451 2.82701 26.3083C2.48345 26.1714 2.17477 25.9714 1.92042 25.7208C1.66606 25.4703 1.47153 25.1745 1.34908 24.8522C1.22662 24.5299 1.1789 24.1881 1.2089 23.8482L2.29989 11.498V11.498Z" stroke="#232525" stroke-width="2" stroke-linecap="round" stroke-linejoin="round"/>
<path d="M18.6347 12.9306V6.75553C18.6347 5.44533 18.0622 4.1888 17.043 3.26235C16.0238 2.3359 14.6415 1.81543 13.2001 1.81543C11.7588 1.81543 10.3765 2.3359 9.35726 3.26235C8.33808 4.1888 7.7655 5.44533 7.7655 6.75553V12.9306" stroke="#232525" stroke-width="2" stroke-linecap="round" stroke-linejoin="round"/>
</svg>
