<svg width="27" height="24" viewBox="0 0 27 24" fill="none" xmlns="http://www.w3.org/2000/svg">
<path d="M22.8989 3.74614C22.3456 3.19257 21.6886 2.75343 20.9655 2.45382C20.2425 2.15421 19.4674 2 18.6847 2C17.902 2 17.127 2.15421 16.4039 2.45382C15.6809 2.75343 15.0239 3.19257 14.4706 3.74614L13.3222 4.89448L12.1739 3.74614C11.0562 2.62848 9.54035 2.00058 7.95973 2.00058C6.37911 2.00058 4.86323 2.62848 3.74557 3.74614C2.6279 4.86381 2 6.37969 2 7.96031C2 9.54093 2.6279 11.0568 3.74557 12.1745L4.8939 13.3228L13.3222 21.7511L21.7506 13.3228L22.8989 12.1745C23.4525 11.6212 23.8916 10.9642 24.1912 10.2411C24.4908 9.51803 24.645 8.743 24.645 7.96031C24.645 7.17762 24.4908 6.40259 24.1912 5.67951C23.8916 4.95643 23.4525 4.29946 22.8989 3.74614V3.74614Z" stroke="#0C3A2D" stroke-width="3" stroke-linecap="round" stroke-linejoin="round"/>
</svg>
