<svg width="104" height="52" viewBox="0 0 104 52" fill="none" xmlns="http://www.w3.org/2000/svg">
<path d="M51.9998 29.9347L62.7118 36.4L59.8692 24.2147L69.3332 16.016L56.8705 14.9587L51.9998 3.46667L47.1292 14.9587L34.6665 16.016L44.1305 24.2147L41.2878 36.4L51.9998 29.9347Z" fill="#0C3A2D"/>
<path d="M20.7999 40.3347L31.5119 46.8L28.6692 34.6147L38.1332 26.416L25.6706 25.3587L20.7999 13.8667L15.9292 25.3587L3.46655 26.416L12.9306 34.6147L10.0879 46.8L20.7999 40.3347Z" fill="#0C3A2D"/>
<path d="M83.1998 40.3347L93.9118 46.8L91.0691 34.6147L100.533 26.416L88.0705 25.3587L83.1998 13.8667L78.3291 25.3587L65.8665 26.416L75.3305 34.6147L72.4878 46.8L83.1998 40.3347Z" fill="#0C3A2D"/>
</svg>
