<svg width="24" height="24" viewBox="0 0 24 24" fill="none" xmlns="http://www.w3.org/2000/svg">
<path d="M18.3639 5.63604C21.8787 9.15076 21.8787 14.8492 18.3639 18.3639C14.8492 21.8787 9.15074 21.8787 5.63604 18.3639C2.12132 14.8492 2.12132 9.15074 5.63604 5.63604C9.15076 2.12132 14.8492 2.12132 18.3639 5.63604" stroke="#ADAABF" stroke-width="1.5" stroke-linecap="round" stroke-linejoin="round"/>
<path d="M17.307 19.257C16.923 17.417 14.705 16 12 16C9.29499 16 7.07699 17.417 6.69299 19.257" stroke="#ADAABF" stroke-width="1.5" stroke-linecap="round" stroke-linejoin="round"/>
<path d="M14.1213 7.87868C15.2929 9.05025 15.2929 10.9497 14.1213 12.1213C12.9497 13.2929 11.0502 13.2929 9.87868 12.1213C8.70711 10.9497 8.70711 9.05025 9.87868 7.87868C11.0502 6.70711 12.9497 6.70711 14.1213 7.87868" stroke="#ADAABF" stroke-width="1.5" stroke-linecap="round" stroke-linejoin="round"/>
</svg>
