<svg width="150" height="150" viewBox="0 0 150 150" fill="none" xmlns="http://www.w3.org/2000/svg">
<path fill-rule="evenodd" clip-rule="evenodd" d="M75 150C116.421 150 150 116.421 150 75C150 33.5786 116.421 0 75 0C33.5786 0 0 33.5786 0 75C0 116.421 33.5786 150 75 150ZM45.0001 78.6967C45.0141 71.7531 47.7784 65.0977 52.6879 60.1874C65.7378 47.1375 105 45 105 45C105 45 102.863 84.2622 89.8126 97.3121C81.7502 105.375 69.7503 107.062 60.0004 102.45C62.4841 88.8093 69.6287 76.4554 80.2127 67.4998C67.9503 73.8373 58.1254 84.4872 52.6129 97.2371C47.7233 92.3069 44.986 85.6404 45.0001 78.6967Z" fill="#6D9773"/>
</svg>
