<svg width="150" height="150" viewBox="0 0 150 150" fill="none" xmlns="http://www.w3.org/2000/svg">
<path fill-rule="evenodd" clip-rule="evenodd" d="M75 150C116.421 150 150 116.421 150 75C150 33.5786 116.421 0 75 0C33.5786 0 0 33.5786 0 75C0 116.421 33.5786 150 75 150ZM99.5802 81.068L97.0261 82.1314L111.005 95.9797L100.19 97.4973C100.013 97.5223 99.8773 97.6571 99.8522 97.8318L98.3208 108.55L84.4276 94.7816L82.7753 94.3972V114.995L74.0454 108.49C73.9044 108.385 73.7079 108.385 73.5669 108.49L64.837 114.995V97.0081L61.9506 93.6933L56.2079 95.0312L53.9259 89.6396L48.0472 89.1554L47.5586 83.3295L42.1182 81.068L43.4683 75.3769L39 71.5579L42.0577 66.5607L39 61.5635L43.4683 57.7445L42.1182 52.0534L47.5586 49.7919L48.0472 43.966L53.9259 43.4818L56.2079 38.0902L61.9506 39.4281L65.8042 35L70.8467 38.0303L75.8892 35L79.7478 39.4281L85.4905 38.0902L87.7725 43.4818L93.6511 43.966L94.1398 49.7919L99.5802 52.0534L98.2301 57.7445L102.698 61.5635L99.6406 66.5607L102.698 71.5579L98.2301 75.3769L99.5802 81.068Z" fill="#6D9773"/>
</svg>
