<svg width="150" height="150" viewBox="0 0 150 150" fill="none" xmlns="http://www.w3.org/2000/svg">
<path fill-rule="evenodd" clip-rule="evenodd" d="M150 75C150 116.421 116.421 150 75 150C33.5786 150 0 116.421 0 75C0 33.5786 33.5786 0 75 0C116.421 0 150 33.5786 150 75ZM86.6523 40.3767L86.6511 40.3784L86.6507 40.379C85.5196 41.7845 84.4118 43.161 83.1197 44.3342C74.543 52.1343 71.1877 61.7889 72.0859 73.2341C72.4047 77.3023 72.4047 81.4979 71.7787 85.5081C70.6487 92.7229 66.2213 98.0486 60.3857 102.117C59.2672 102.899 56.9897 102.911 55.6511 102.337C48.923 99.4278 45.4402 93.7429 45.0867 86.7714C44.061 66.7089 52.1509 50.8072 68.5625 39.362C74.7111 35.0736 81.9201 35.0273 88.2542 38.429C87.7017 39.073 87.1745 39.7279 86.6523 40.3767ZM66.4039 103.189C65.6448 103.836 64.8205 104.539 63.9034 105.333C71.9006 106.973 77.8173 105.489 83.1082 101.972C97.6075 92.3289 105.008 78.554 105.408 61.2557C105.581 53.7164 103.426 46.6406 96.97 41.8307C95.9269 41.0542 93.3075 40.7702 92.5541 41.4772C82.4186 50.9521 74.9256 61.5861 77.968 76.6416C79.7935 85.7051 77.1103 93.4705 70.3185 99.7639C69.1257 100.869 67.8897 101.922 66.4039 103.189Z" fill="#6D9773"/>
</svg>
