<svg width="145" height="145" viewBox="0 0 145 145" fill="none" xmlns="http://www.w3.org/2000/svg">
<path d="M71 67H140C142.761 67 145 69.2386 145 72V140C145 142.761 142.761 145 140 145H71V67Z" fill="#0C3A2D"/>
<circle cx="72.5" cy="72.5" r="72.5" fill="#0C3A2D"/>
<path d="M73.6585 128.841C59.0538 129.222 44.3039 124.05 32.8908 113.218C10.0796 91.5685 9.13413 55.3799 30.7837 32.5687C52.4332 9.75753 88.6218 8.81203 111.433 30.4616C134.244 52.1111 135.19 88.2997 113.54 111.111C102.723 122.524 88.2632 128.459 73.6585 128.841ZM70.7832 18.7909C57.1923 19.146 43.7365 24.673 33.6629 35.287C13.5159 56.5151 14.3957 90.1912 35.6238 110.338C56.8519 130.485 90.528 129.606 110.675 108.377C130.822 87.1493 129.942 53.4732 108.714 33.3262C98.1002 23.2526 84.3741 18.4358 70.7832 18.7909Z" fill="white"/>
<path d="M72.3431 115.346C61.158 115.346 49.9876 111.083 41.4775 102.573C24.4574 85.553 24.4574 57.8474 41.4775 40.8273C58.4977 23.8071 86.2033 23.8071 103.223 40.8273C120.244 57.8474 120.244 85.553 103.223 102.573C94.6987 111.098 83.5282 115.346 72.3431 115.346ZM72.3431 32.0232C62.1722 32.0232 52.0159 35.8888 44.2701 43.6346C28.7932 59.1115 28.7932 84.3037 44.2701 99.7806C51.7661 107.276 61.7313 111.407 72.3431 111.407C82.9403 111.407 92.9202 107.276 100.416 99.7806C107.912 92.2846 112.042 82.3195 112.042 71.7076C112.042 61.1104 107.912 51.1305 100.416 43.6346C92.6703 35.9035 82.5141 32.0232 72.3431 32.0232Z" fill="white"/>
<path d="M72.3427 105.204C53.8821 105.204 38.8608 90.1828 38.8608 71.7222C38.8608 55.6721 50.2811 41.8413 66.0226 38.8283C67.0955 38.6225 68.1391 39.328 68.3448 40.401C68.5506 41.4739 67.8451 42.5174 66.7722 42.7232C52.8973 45.3835 42.8293 57.5681 42.8293 71.7222C42.8293 88.0075 56.0721 101.25 72.3574 101.25C88.6426 101.25 101.885 88.0075 101.885 71.7222C101.885 59.4641 94.5071 48.6612 83.0868 44.2077C82.0727 43.8109 81.5583 42.6644 81.9551 41.6356C82.3519 40.6214 83.4984 40.107 84.5272 40.5038C97.4614 45.5599 105.825 57.8033 105.825 71.7075C105.825 90.1681 90.8032 105.204 72.3427 105.204Z" fill="#FFB902"/>
<path d="M72.3868 94.3276C70.8435 94.3276 69.3002 94.1659 67.7569 93.8425C60.7313 92.3874 54.764 87.6253 51.7803 81.0995C51.3247 80.1 51.7656 78.9242 52.7504 78.4685C53.7498 78.0129 54.9257 78.4538 55.3813 79.4386C57.8505 84.818 62.7743 88.7571 68.5653 89.9623C73.445 90.9764 78.4276 90.0211 82.5871 87.2873C86.7466 84.5535 89.598 80.3646 90.6122 75.4849C92.6993 65.4168 86.2028 55.5251 76.1347 53.438C67.3895 51.6302 58.5413 56.2894 55.1314 64.5349C54.7052 65.5491 53.5588 66.0194 52.5446 65.6079C51.5304 65.1816 51.0601 64.0352 51.4716 63.021C55.6165 53.0265 66.3312 47.3678 76.9431 49.5724C89.1571 52.1005 97.0205 64.094 94.4924 76.3079C93.2725 82.2165 89.8185 87.302 84.7624 90.6237C81.0144 93.0635 76.752 94.3276 72.3868 94.3276Z" fill="white"/>
<path d="M69.6246 83.26C69.4482 83.26 69.2718 83.2307 69.0808 83.1866C63.5837 81.6286 59.9534 76.3814 60.4531 70.6786C60.7323 67.5039 62.2168 64.6231 64.6567 62.5801C67.0965 60.5371 70.1831 59.5523 73.3578 59.8316C76.5326 60.1108 79.4134 61.5953 81.4564 64.0352C83.4994 66.475 84.4842 69.5616 84.2049 72.7363C84.1167 73.824 83.1467 74.6324 82.059 74.5442C80.9714 74.456 80.163 73.4859 80.2512 72.3983C80.4275 70.2818 79.7808 68.2094 78.4139 66.5926C77.047 64.9612 75.1216 63.9617 73.0051 63.7853C70.8886 63.5943 68.8162 64.2557 67.1994 65.6226C65.568 66.9895 64.5685 68.9149 64.3921 71.0314C64.0688 74.8381 66.4792 78.3509 70.1537 79.3798C71.212 79.6738 71.8146 80.7761 71.5206 81.8197C71.2854 82.6868 70.4918 83.26 69.6246 83.26Z" fill="#FFB902"/>
</svg>
