<svg width="98" height="139" viewBox="0 0 98 139" fill="none" xmlns="http://www.w3.org/2000/svg">
<rect y="49" width="98" height="90" fill="#0C3A2D"/>
<circle cx="49" cy="49" r="49" fill="#0C3A2D"/>
<path d="M12.57 99.7375C15.68 99.7375 18.03 101.487 18.77 104.317H15.27C14.73 103.197 13.74 102.637 12.53 102.637C10.57 102.637 9.23 104.087 9.23 106.397C9.23 108.707 10.57 110.157 12.53 110.157C13.74 110.157 14.73 109.597 15.27 108.477H18.77C18.03 111.307 15.68 113.037 12.57 113.037C8.72 113.037 6 110.297 6 106.387C6 102.497 8.72 99.7375 12.57 99.7375Z" fill="#FFB902"/>
<path d="M30.72 113.38C27.01 113.38 24 110.61 24 106.68C24 102.75 27.02 100 30.72 100C34.44 100 37.4 102.76 37.4 106.68C37.41 110.61 34.43 113.38 30.72 113.38ZM30.72 110.48C32.81 110.48 34.16 108.97 34.16 106.68C34.16 104.35 32.8 102.88 30.72 102.88C28.6 102.88 27.26 104.35 27.26 106.68C27.26 108.97 28.6 110.48 30.72 110.48Z" fill="#FFB902"/>
<path d="M42.81 99.8875H51.32V102.438H46V105.198H49.98V107.678H46V112.968H42.82V99.8875H42.81Z" fill="#FFB902"/>
<path d="M57 100H65.51V102.55H60.19V105.31H64.17V107.79H60.19V113.08H57.01V100H57Z" fill="#FFB902"/>
<path d="M78.64 102.438H73.82V105.078H78.08V107.538H73.82V110.408H78.64V112.958H70.63V99.8875H78.64V102.438V102.438Z" fill="#FFB902"/>
<path d="M92.44 102.438H87.62V105.078H91.88V107.538H87.62V110.408H92.44V112.958H84.43V99.8875H92.44V102.438Z" fill="#FFB902"/>
<path d="M15.83 125.747H10.22V131.847H6.60999V117.037H10.22V122.837H15.83V117.037H19.44V131.847H15.83V125.747Z" fill="white"/>
<path d="M33.26 131.998C29.06 131.998 25.64 128.858 25.64 124.398C25.64 119.938 29.06 116.818 33.26 116.818C37.48 116.818 40.84 119.938 40.84 124.398C40.84 128.858 37.46 131.998 33.26 131.998ZM33.26 128.708C35.62 128.708 37.16 126.998 37.16 124.408C37.16 121.768 35.62 120.108 33.26 120.108C30.85 120.108 29.34 121.778 29.34 124.408C29.34 126.998 30.86 128.708 33.26 128.708Z" fill="white"/>
<path d="M47 117.037H50.61V125.897C50.61 127.647 51.47 128.657 53.18 128.657C54.89 128.657 55.8 127.647 55.8 125.897V117.037H59.41V125.877C59.41 129.967 56.54 131.997 53.12 131.997C49.68 131.997 47 129.967 47 125.877V117.037Z" fill="white"/>
<path d="M71.53 131.998C68.34 131.998 65.85 130.418 65.75 127.418H69.59C69.7 128.558 70.41 129.108 71.43 129.108C72.49 129.108 73.16 128.578 73.16 127.718C73.16 124.978 65.75 126.448 65.8 121.198C65.8 118.388 68.1 116.828 71.2 116.828C74.43 116.828 76.6 118.428 76.75 121.258H72.85C72.79 120.308 72.11 119.738 71.14 119.718C70.27 119.698 69.62 120.138 69.62 121.068C69.62 123.638 76.94 122.478 76.94 127.438C76.93 129.928 74.99 131.998 71.53 131.998Z" fill="white"/>
<path d="M92.44 119.927H86.97V122.927H91.8V125.707H86.97V128.957H92.44V131.847H83.37V117.037H92.44V119.927Z" fill="white"/>
<path d="M49.22 87.5875C39.28 87.5875 29.34 83.8075 21.77 76.2375C6.63999 61.1075 6.63999 36.4775 21.77 21.3475C36.9 6.2175 61.53 6.2175 76.66 21.3475C91.79 36.4775 91.79 61.1075 76.66 76.2375C69.1 83.8075 59.16 87.5875 49.22 87.5875ZM49.22 12.6875C39.97 12.6875 30.72 16.2075 23.68 23.2475C9.59999 37.3275 9.59999 60.2475 23.68 74.3275C37.76 88.4075 60.68 88.4075 74.76 74.3275C88.84 60.2475 88.84 37.3275 74.76 23.2475C67.72 16.2075 58.47 12.6875 49.22 12.6875Z" fill="white"/>
<path d="M49.22 78.4775C41.61 78.4775 34.01 75.5775 28.22 69.7875C16.64 58.2075 16.64 39.3575 28.22 27.7775C39.8 16.1975 58.65 16.1975 70.23 27.7775C81.81 39.3575 81.81 58.2075 70.23 69.7875C64.43 75.5875 56.83 78.4775 49.22 78.4775ZM49.22 21.7875C42.3 21.7875 35.39 24.4175 30.12 29.6875C19.59 40.2175 19.59 57.3575 30.12 67.8875C35.22 72.9875 42 75.7975 49.22 75.7975C56.43 75.7975 63.22 72.9875 68.32 67.8875C73.42 62.7875 76.23 56.0075 76.23 48.7875C76.23 41.5775 73.42 34.7875 68.32 29.6875C63.05 24.4275 56.14 21.7875 49.22 21.7875Z" fill="white"/>
<path d="M49.22 71.5775C36.66 71.5775 26.44 61.3575 26.44 48.7975C26.44 37.8775 34.21 28.4675 44.92 26.4175C45.65 26.2775 46.36 26.7575 46.5 27.4875C46.64 28.2175 46.16 28.9275 45.43 29.0675C35.99 30.8775 29.14 39.1675 29.14 48.7975C29.14 59.8775 38.15 68.8875 49.23 68.8875C60.31 68.8875 69.32 59.8775 69.32 48.7975C69.32 40.4575 64.3 33.1075 56.53 30.0775C55.84 29.8075 55.49 29.0275 55.76 28.3275C56.03 27.6375 56.81 27.2875 57.51 27.5575C66.31 30.9975 72 39.3275 72 48.7875C72 61.3475 61.78 71.5775 49.22 71.5775Z" fill="#FFB902"/>
<path d="M49.25 64.1775C48.2 64.1775 47.15 64.0675 46.1 63.8475C41.32 62.8575 37.26 59.6175 35.23 55.1775C34.92 54.4975 35.22 53.6975 35.89 53.3875C36.57 53.0775 37.37 53.3775 37.68 54.0475C39.36 57.7075 42.71 60.3875 46.65 61.2075C49.97 61.8975 53.36 61.2475 56.19 59.3875C59.02 57.5275 60.96 54.6775 61.65 51.3575C63.07 44.5075 58.65 37.7775 51.8 36.3575C45.85 35.1275 39.83 38.2975 37.51 43.9075C37.22 44.5975 36.44 44.9175 35.75 44.6375C35.06 44.3475 34.74 43.5675 35.02 42.8775C37.84 36.0775 45.13 32.2275 52.35 33.7275C60.66 35.4475 66.01 43.6075 64.29 51.9175C63.46 55.9375 61.11 59.3975 57.67 61.6575C55.12 63.3175 52.22 64.1775 49.25 64.1775Z" fill="white"/>
<path d="M47.37 56.6475C47.25 56.6475 47.13 56.6275 47 56.5975C43.26 55.5375 40.79 51.9675 41.13 48.0875C41.32 45.9275 42.33 43.9675 43.99 42.5775C45.65 41.1875 47.75 40.5175 49.91 40.7075C52.07 40.8975 54.03 41.9075 55.42 43.5675C56.81 45.2275 57.48 47.3275 57.29 49.4875C57.23 50.2275 56.57 50.7775 55.83 50.7175C55.09 50.6575 54.54 49.9975 54.6 49.2575C54.72 47.8175 54.28 46.4075 53.35 45.3075C52.42 44.1975 51.11 43.5175 49.67 43.3975C48.23 43.2675 46.82 43.7175 45.72 44.6475C44.61 45.5775 43.93 46.8875 43.81 48.3275C43.59 50.9175 45.23 53.3075 47.73 54.0075C48.45 54.2075 48.86 54.9575 48.66 55.6675C48.5 56.2575 47.96 56.6475 47.37 56.6475Z" fill="#FFB902"/>
<path d="M72.9475 84.2437C72.9367 83.8838 73.0659 83.5198 73.3274 83.2319L80.3283 75.7992C80.5804 75.5315 80.9358 75.3709 81.3156 75.3595C81.6854 75.3484 82.0497 75.4876 82.3274 75.7394L92.2307 85.0675C93.4558 86.2214 94.1527 87.7812 94.203 89.4605C94.2532 91.1397 93.6504 92.7284 92.4965 93.9535L92.1766 94.2932C91.0227 95.5183 89.4728 96.2149 87.7936 96.2651C86.1143 96.3154 84.5256 95.7126 83.3005 94.5587L73.3972 85.2307C73.1089 84.9592 72.9582 84.6035 72.9475 84.2437ZM81.4172 78.758L76.346 84.142L85.2301 92.5101C85.8993 93.1404 86.7797 93.4742 87.7092 93.4464C88.6288 93.4189 89.4877 93.033 90.128 92.3636L90.4479 92.0239C91.0782 91.3547 91.412 90.4744 91.3842 89.5448C91.3567 88.6252 90.9709 87.7663 90.3014 87.1261L81.4172 78.758Z" fill="white"/>
</svg>
