<svg width="388" height="142" viewBox="0 0 388 142" fill="none" xmlns="http://www.w3.org/2000/svg">
<path d="M69.9077 58.9846H137C139.761 58.9846 142 61.2232 142 63.9846V137C142 139.761 139.761 142 137 142H69.9077V58.9846Z" fill="#0C3A2D"/>
<circle cx="71" cy="71" r="71" fill="#0C3A2D"/>
<path d="M72.1347 126.175C57.8322 126.549 43.3875 121.483 32.2105 110.876C9.87131 89.6739 8.94537 54.2341 30.147 31.8949C51.3486 9.55566 86.7885 8.62972 109.128 29.8313C131.467 51.0329 132.393 86.4728 111.191 108.812C100.598 119.989 86.4373 125.801 72.1347 126.175ZM69.319 18.4021C56.0092 18.7499 42.8318 24.1625 32.9667 34.5569C13.2364 55.3458 14.0981 88.3252 34.887 108.055C55.6759 127.786 88.6553 126.924 108.386 106.135C128.116 85.3463 127.254 52.3669 106.465 32.6366C96.0708 22.7715 82.6287 18.0544 69.319 18.4021Z" fill="white"/>
<path d="M70.8464 112.959C59.8927 112.959 48.9534 108.785 40.6194 100.451C23.9514 83.7827 23.9514 56.6504 40.6194 39.9823C57.2875 23.3143 84.4198 23.3143 101.088 39.9823C117.756 56.6504 117.756 83.7827 101.088 100.451C92.7394 108.799 81.8001 112.959 70.8464 112.959ZM70.8464 31.3605C60.8859 31.3605 50.9398 35.146 43.3543 42.7316C28.1976 57.8882 28.1976 82.5592 43.3543 97.7159C50.6951 105.057 60.4541 109.101 70.8464 109.101C81.2244 109.101 90.9978 105.057 98.3386 97.7159C105.679 90.3751 109.724 80.6161 109.724 70.2237C109.724 59.8458 105.679 50.0724 98.3386 42.7316C90.7531 35.1604 80.807 31.3605 70.8464 31.3605Z" fill="white"/>
<path d="M70.846 103.027C52.7674 103.027 38.0569 88.3169 38.0569 70.2383C38.0569 54.5202 49.2409 40.9757 64.6566 38.0249C65.7074 37.8234 66.7294 38.5143 66.9309 39.5651C67.1324 40.6158 66.4415 41.6378 65.3907 41.8393C51.803 44.4446 41.9432 56.377 41.9432 70.2383C41.9432 86.1866 54.912 99.1554 70.8604 99.1554C86.8087 99.1554 99.7775 86.1866 99.7775 70.2383C99.7775 58.2338 92.5519 47.6544 81.3679 43.2931C80.3747 42.9044 79.8709 41.7817 80.2595 40.7741C80.6482 39.781 81.7709 39.2772 82.7785 39.6658C95.445 44.6173 103.635 56.6073 103.635 70.2239C103.635 88.3025 88.9246 103.027 70.846 103.027Z" fill="#FFB902"/>
<path d="M70.8897 92.376C69.3783 92.376 67.867 92.2177 66.3556 91.901C59.4754 90.4761 53.6315 85.8125 50.7096 79.4216C50.2634 78.4428 50.6952 77.2913 51.6596 76.8451C52.6383 76.3989 53.7898 76.8307 54.236 77.7951C56.6542 83.0632 61.4761 86.9208 67.1473 88.1011C71.926 89.0943 76.8055 88.1587 80.879 85.4814C84.9524 82.8042 87.7448 78.7019 88.738 73.9232C90.7819 64.0634 84.4199 54.3764 74.5601 52.3325C65.9958 50.562 57.3307 55.1249 53.9914 63.1998C53.5739 64.193 52.4512 64.6536 51.458 64.2505C50.4649 63.8331 50.0043 62.7104 50.4073 61.7172C54.4663 51.9294 64.9594 46.3878 75.3518 48.5469C87.313 51.0226 95.0137 62.768 92.538 74.7292C91.3433 80.5155 87.9607 85.4958 83.0093 88.7488C79.3389 91.1382 75.1646 92.376 70.8897 92.376Z" fill="white"/>
<path d="M68.1841 81.5374C68.0114 81.5374 67.8387 81.5086 67.6516 81.4655C62.2683 79.9397 58.713 74.8011 59.2024 69.2163C59.4759 66.1073 60.9296 63.2861 63.319 61.2853C65.7084 59.2846 68.7311 58.3202 71.8401 58.5937C74.9492 58.8672 77.7704 60.3209 79.7711 62.7103C81.7719 65.0997 82.7363 68.1224 82.4628 71.2315C82.3764 72.2966 81.4264 73.0883 80.3613 73.0019C79.2961 72.9155 78.5045 71.9655 78.5908 70.9004C78.7636 68.8277 78.1302 66.7982 76.7916 65.2148C75.453 63.6171 73.5674 62.6383 71.4947 62.4656C69.422 62.2785 67.3925 62.9262 65.8091 64.2648C64.2114 65.6035 63.2327 67.4891 63.0599 69.5618C62.7433 73.2898 65.1038 76.7299 68.7023 77.7375C69.7387 78.0253 70.3288 79.1049 70.0409 80.1268C69.8106 80.9761 69.0334 81.5374 68.1841 81.5374Z" fill="#FFB902"/>
<path d="M106.151 120.471C106.122 119.954 106.294 119.425 106.659 119.001L116.453 108.043C116.806 107.649 117.311 107.404 117.857 107.374C118.389 107.344 118.919 107.53 119.328 107.882L133.928 120.932C135.734 122.546 136.796 124.764 136.931 127.179C137.066 129.593 136.259 131.902 134.645 133.708L134.197 134.209C132.583 136.015 130.379 137.076 127.964 137.211C125.55 137.346 123.241 136.539 121.435 134.925L106.835 121.875C106.41 121.495 106.18 120.989 106.151 120.471ZM118.131 112.26L111.037 120.197L124.135 131.904C125.121 132.786 126.401 133.233 127.737 133.158C129.059 133.084 130.281 132.497 131.177 131.509L131.624 131.008C132.506 130.022 132.953 128.743 132.878 127.406C132.804 126.084 132.217 124.863 131.229 123.967L118.131 112.26Z" fill="white"/>
<path d="M182.873 54.6154C190.846 54.6154 196.871 59.1016 198.768 66.3565H189.795C188.411 63.4853 185.873 62.0497 182.771 62.0497C177.746 62.0497 174.311 65.7669 174.311 71.6888C174.311 77.6107 177.746 81.3278 182.771 81.3278C185.873 81.3278 188.411 79.8922 189.795 77.021H198.768C196.871 84.276 190.846 88.7109 182.873 88.7109C173.004 88.7109 166.031 81.6867 166.031 71.6631C166.031 61.6908 173.004 54.6154 182.873 54.6154Z" fill="white"/>
<path d="M229.403 89.5891C219.892 89.5891 212.176 82.488 212.176 72.4131C212.176 62.3383 219.918 55.2885 229.403 55.2885C238.939 55.2885 246.527 62.3639 246.527 72.4131C246.553 82.488 238.914 89.5891 229.403 89.5891ZM229.403 82.1548C234.761 82.1548 238.222 78.2837 238.222 72.4131C238.222 66.44 234.735 62.6716 229.403 62.6716C223.968 62.6716 220.533 66.44 220.533 72.4131C220.533 78.2837 223.968 82.1548 229.403 82.1548Z" fill="white"/>
<path d="M260.396 54.9999H282.213V61.537H268.574V68.6125H278.777V74.9702H268.574V88.5315H260.422V54.9999H260.396Z" fill="white"/>
<path d="M296.773 55.2885H318.589V61.8256H304.951V68.9011H315.154V75.2587H304.951V88.8201H296.799V55.2885H296.773Z" fill="white"/>
<path d="M352.249 61.537H339.893V68.3049H350.814V74.6113H339.893V81.9687H352.249V88.5059H331.715V54.9999H352.249V61.537V61.537Z" fill="white"/>
<path d="M387.627 61.537H375.27V68.3049H386.191V74.6113H375.27V81.9687H387.627V88.5059H367.092V54.9999H387.627V61.537Z" fill="white"/>
<path d="M191.231 121.294H176.85V136.932H167.595V98.9653H176.85V113.834H191.231V98.9653H200.486V136.932H191.231V121.294Z" fill="white"/>
<path d="M235.914 137.317C225.147 137.317 216.379 129.267 216.379 117.834C216.379 106.4 225.147 98.4016 235.914 98.4016C246.732 98.4016 255.346 106.4 255.346 117.834C255.346 129.267 246.681 137.317 235.914 137.317ZM235.914 128.883C241.964 128.883 245.912 124.499 245.912 117.859C245.912 111.091 241.964 106.836 235.914 106.836C229.736 106.836 225.865 111.117 225.865 117.859C225.865 124.499 229.761 128.883 235.914 128.883Z" fill="white"/>
<path d="M271.138 98.9653H280.392V121.679C280.392 126.165 282.597 128.754 286.981 128.754C291.364 128.754 293.697 126.165 293.697 121.679V98.9653H302.952V121.627C302.952 132.112 295.594 137.316 286.827 137.316C278.008 137.316 271.138 132.112 271.138 121.627V98.9653Z" fill="white"/>
<path d="M334.022 137.317C325.844 137.317 319.461 133.266 319.205 125.575H329.049C329.331 128.498 331.151 129.908 333.766 129.908C336.483 129.908 338.201 128.549 338.201 126.345C338.201 119.32 319.205 123.089 319.333 109.63C319.333 102.426 325.229 98.4271 333.176 98.4271C341.456 98.4271 347.019 102.529 347.404 109.784H337.406C337.252 107.348 335.509 105.887 333.022 105.836C330.792 105.785 329.126 106.913 329.126 109.297C329.126 115.885 347.891 112.911 347.891 125.627C347.865 132.01 342.892 137.317 334.022 137.317Z" fill="white"/>
<path d="M387.627 106.374H373.604V114.065H385.986V121.192H373.604V129.523H387.627V136.932H364.375V98.9653H387.627V106.374Z" fill="white"/>
</svg>
