<svg width="178" height="65" viewBox="0 0 178 65" fill="none" xmlns="http://www.w3.org/2000/svg">
<path d="M32 27H60C62.7614 27 65 29.2386 65 32V60C65 62.7614 62.7614 65 60 65H32V27Z" fill="#0C3A2D"/>
<circle cx="32.5" cy="32.5" r="32.5" fill="#0C3A2D"/>
<path d="M33.0194 57.7562C26.4724 57.9272 19.8604 55.6086 14.7442 50.7529C4.51852 41.0479 4.09468 24.8255 13.7996 14.5998C23.5046 4.37407 39.7271 3.95022 49.9528 13.6552C60.1785 23.3601 60.6023 39.5826 50.8973 49.8083C46.0482 54.9244 39.5663 57.5851 33.0194 57.7562ZM31.7305 8.4235C25.638 8.58268 19.6061 11.0603 15.0904 15.8183C6.0589 25.3344 6.45332 40.4306 15.9694 49.462C25.4854 58.4935 40.5816 58.099 49.6131 48.583C58.6445 39.0669 58.2501 23.9708 48.734 14.9393C43.976 10.4236 37.823 8.26433 31.7305 8.4235Z" fill="white"/>
<path d="M32.4296 51.7066C27.4156 51.7066 22.4081 49.7959 18.5933 45.981C10.9635 38.3513 10.9635 25.9315 18.5933 18.3018C26.223 10.6721 38.6427 10.6721 46.2725 18.3018C53.9022 25.9315 53.9022 38.3513 46.2725 45.981C42.451 49.8025 37.4436 51.7066 32.4296 51.7066ZM32.4296 14.3552C27.8702 14.3552 23.3174 16.088 19.8451 19.5603C12.9072 26.4982 12.9072 37.7912 19.8451 44.7292C23.2054 48.0894 27.6725 49.9408 32.4296 49.9408C37.18 49.9408 41.6538 48.0894 45.014 44.7292C48.3743 41.3689 50.2257 36.9018 50.2257 32.1447C50.2257 27.3942 48.3743 22.9205 45.014 19.5603C41.5418 16.0946 36.989 14.3552 32.4296 14.3552Z" fill="white"/>
<path d="M32.4295 47.1604C24.1541 47.1604 17.4204 40.4268 17.4204 32.1513C17.4204 24.9565 22.5398 18.7565 29.5964 17.4058C30.0773 17.3135 30.5451 17.6298 30.6374 18.1108C30.7296 18.5917 30.4134 19.0595 29.9324 19.1518C23.7126 20.3443 19.1994 25.8064 19.1994 32.1513C19.1994 39.4516 25.1358 45.3881 32.4361 45.3881C39.7364 45.3881 45.6728 39.4516 45.6728 32.1513C45.6728 26.6563 42.3653 21.8136 37.2459 19.8173C36.7912 19.6394 36.5606 19.1254 36.7385 18.6642C36.9164 18.2096 37.4303 17.979 37.8916 18.1569C43.6896 20.4234 47.4386 25.9118 47.4386 32.1447C47.4386 40.4202 40.7049 47.1604 32.4295 47.1604Z" fill="#FFB902"/>
<path d="M32.4495 42.2848C31.7576 42.2848 31.0658 42.2123 30.374 42.0674C27.2246 41.4151 24.5496 39.2803 23.2121 36.3549C23.0078 35.9069 23.2055 35.3798 23.6469 35.1756C24.095 34.9713 24.6221 35.169 24.8263 35.6104C25.9332 38.0219 28.1404 39.7877 30.7364 40.3279C32.9238 40.7826 35.1574 40.3543 37.022 39.1288C38.8866 37.9033 40.1648 36.0255 40.6195 33.8381C41.5551 29.3248 38.6429 24.8906 34.1296 23.955C30.2093 23.1446 26.2429 25.2332 24.7143 28.9295C24.5232 29.3841 24.0093 29.5949 23.5547 29.4104C23.1001 29.2194 22.8892 28.7054 23.0737 28.2508C24.9317 23.7705 29.7349 21.2338 34.492 22.2221C39.9672 23.3554 43.4921 28.7318 42.3589 34.207C41.812 36.8557 40.2637 39.1354 37.9972 40.6244C36.317 41.7182 34.4063 42.2848 32.4495 42.2848Z" fill="white"/>
<path d="M31.2109 37.3235C31.1318 37.3235 31.0528 37.3103 30.9671 37.2905C28.5029 36.5921 26.8755 34.24 27.0995 31.6835C27.2247 30.2604 27.8902 28.969 28.9839 28.0531C30.0776 27.1373 31.4613 26.6959 32.8844 26.8211C34.3076 26.9462 35.599 27.6117 36.5148 28.7054C37.4306 29.7992 37.8721 31.1828 37.7469 32.606C37.7074 33.0935 37.2725 33.4559 36.785 33.4164C36.2974 33.3768 35.935 32.942 35.9745 32.4544C36.0536 31.5056 35.7637 30.5766 35.1509 29.8519C34.5382 29.1205 33.6751 28.6725 32.7263 28.5934C31.7775 28.5078 30.8485 28.8043 30.1238 29.417C29.3924 30.0298 28.9444 30.8929 28.8653 31.8417C28.7204 33.5481 29.8009 35.1228 31.4481 35.5841C31.9225 35.7158 32.1926 36.21 32.0608 36.6778C31.9554 37.0665 31.5996 37.3235 31.2109 37.3235Z" fill="#FFB902"/>
<path d="M48.5901 55.1454C48.5768 54.9086 48.6556 54.6666 48.8229 54.4724L53.3061 49.4565C53.4676 49.2758 53.6989 49.1639 53.9488 49.1499C54.1922 49.1362 54.4346 49.2216 54.6218 49.3827L61.3051 55.3562C62.1319 56.0951 62.6178 57.1105 62.6797 58.2157C62.7417 59.3208 62.372 60.3776 61.6331 61.2043L61.4282 61.4336C60.6893 62.2603 59.6805 62.7459 58.5753 62.8078C57.4701 62.8698 56.4133 62.5002 55.5866 61.7612L48.9033 55.7878C48.7088 55.6139 48.6034 55.3822 48.5901 55.1454ZM54.0743 51.3865L50.8268 55.02L56.8223 60.3787C57.2739 60.7823 57.8595 60.987 58.4713 60.9527C59.0765 60.9188 59.6355 60.6499 60.0457 60.1979L60.2506 59.9687C60.6542 59.5171 60.8589 58.9315 60.8246 58.3197C60.7907 57.7145 60.5218 57.1555 60.0698 56.7453L54.0743 51.3865Z" fill="white"/>
<path d="M83.7097 25C87.3592 25 90.1168 27.0536 90.9852 30.3745H86.8781C86.2444 29.0602 85.0827 28.4031 83.6628 28.4031C81.3628 28.4031 79.7903 30.1046 79.7903 32.8153C79.7903 35.526 81.3628 37.2275 83.6628 37.2275C85.0827 37.2275 86.2444 36.5704 86.8781 35.2561H90.9852C90.1168 38.577 87.3592 40.6071 83.7097 40.6071C79.1918 40.6071 76 37.3918 76 32.8036C76 28.2388 79.1918 25 83.7097 25Z" fill="#FFB902"/>
<path d="M105.008 41.0091C100.655 41.0091 97.1226 37.7585 97.1226 33.1468C97.1226 28.5351 100.666 25.308 105.008 25.308C109.374 25.308 112.847 28.5468 112.847 33.1468C112.859 37.7585 109.362 41.0091 105.008 41.0091ZM105.008 37.606C107.461 37.606 109.045 35.8341 109.045 33.1468C109.045 30.4126 107.449 28.6876 105.008 28.6876C102.521 28.6876 100.948 30.4126 100.948 33.1468C100.948 35.8341 102.521 37.606 105.008 37.606Z" fill="#FFB902"/>
<path d="M119.196 25.176H129.182V28.1684H122.939V31.4072H127.609V34.3174H122.939V40.525H119.207V25.176H119.196Z" fill="#FFB902"/>
<path d="M135.847 25.308H145.833V28.3004H139.59V31.5392H144.261V34.4494H139.59V40.657H135.859V25.308H135.847Z" fill="#FFB902"/>
<path d="M161.241 28.1684H155.585V31.2663H160.584V34.1531H155.585V37.5209H161.241V40.5133H151.841V25.176H161.241V28.1684V28.1684Z" fill="#FFB902"/>
<path d="M177.435 28.1684H171.779V31.2663H176.777V34.1531H171.779V37.5209H177.435V40.5133H168.035V25.176H177.435V28.1684Z" fill="#FFB902"/>
<path d="M87.5355 55.5219H80.9523V62.6801H76.7161V45.301H80.9523V52.1072H87.5355V45.301H91.7717V62.6801H87.5355V55.5219Z" fill="#0C3A2D"/>
<path d="M107.989 62.8562C103.06 62.8562 99.0469 59.1715 99.0469 53.9378C99.0469 48.7041 103.06 45.0429 107.989 45.0429C112.941 45.0429 116.884 48.7041 116.884 53.9378C116.884 59.1715 112.917 62.8562 107.989 62.8562ZM107.989 58.9955C110.758 58.9955 112.565 56.9888 112.565 53.9495C112.565 50.8516 110.758 48.9036 107.989 48.9036C105.161 48.9036 103.389 50.8633 103.389 53.9495C103.389 56.9888 105.172 58.9955 107.989 58.9955Z" fill="#0C3A2D"/>
<path d="M124.112 45.301H128.349V55.698C128.349 57.7515 129.358 58.9367 131.364 58.9367C133.371 58.9367 134.439 57.7515 134.439 55.698V45.301H138.675V55.6745C138.675 60.474 135.307 62.8561 131.294 62.8561C127.257 62.8561 124.112 60.474 124.112 55.6745V45.301Z" fill="#0C3A2D"/>
<path d="M152.897 62.8562C149.154 62.8562 146.232 61.0021 146.115 57.4817H150.621C150.75 58.8194 151.583 59.4648 152.78 59.4648C154.024 59.4648 154.81 58.8429 154.81 57.8337C154.81 54.6184 146.115 56.3434 146.173 50.1827C146.173 46.8852 148.872 45.0546 152.51 45.0546C156.3 45.0546 158.847 46.9322 159.023 50.2531H154.446C154.376 49.1383 153.578 48.4694 152.44 48.446C151.419 48.4225 150.656 48.9388 150.656 50.0301C150.656 53.046 159.246 51.6847 159.246 57.5051C159.234 60.4271 156.958 62.8562 152.897 62.8562Z" fill="#0C3A2D"/>
<path d="M177.435 48.6924H171.016V52.2128H176.684V55.475H171.016V59.2888H177.435V62.6801H166.792V45.301H177.435V48.6924Z" fill="#0C3A2D"/>
</svg>
