<svg width="62" height="42" viewBox="0 0 62 42" fill="none" xmlns="http://www.w3.org/2000/svg">
<path fill-rule="evenodd" clip-rule="evenodd" d="M5.31409 40.5261C4.95553 41.1923 5.43807 42 6.19466 42H17.4859C17.8539 42 18.1921 41.7979 18.3665 41.4739L27.0056 25.4219C27.084 25.2762 27.125 25.1134 27.125 24.948V0.999999C27.125 0.447714 26.6773 0 26.125 0H1C0.447715 0 0 0.447715 0 1V24.2C0 24.7523 0.447715 25.2 1 25.2H11.8887C12.6453 25.2 13.1278 26.0077 12.7692 26.6739L5.31409 40.5261ZM40.1891 40.5261C39.8305 41.1923 40.3131 42 41.0697 42H52.3609C52.7289 42 53.0671 41.7979 53.2415 41.4739L61.8806 25.4219C61.959 25.2762 62 25.1134 62 24.948V0.999999C62 0.447714 61.5523 0 61 0H35.875C35.3227 0 34.875 0.447715 34.875 1V24.2C34.875 24.7523 35.3227 25.2 35.875 25.2H46.7637C47.5203 25.2 48.0028 26.0077 47.6442 26.6739L40.1891 40.5261Z" fill="#0C3A2D"/>
</svg>
